<?xml version="1.0" standalone="no"?>
<!DOCTYPE svg PUBLIC "-//W3C//DTD SVG 20010904//EN"
 "http://www.w3.org/TR/2001/REC-SVG-20010904/DTD/svg10.dtd">
<svg version="1.0" xmlns="http://www.w3.org/2000/svg"
 width="1280.000000pt" height="592.000000pt" viewBox="0 0 1280.000000 592.000000"
 preserveAspectRatio="xMidYMid meet">

<g transform="translate(0.000000,592.000000) scale(0.100000,-0.100000)"
fill="#000000" stroke="none">
<path d="M3960 5073 c-133 -224 -236 -471 -290 -698 -51 -215 -63 -322 -64
-550 -1 -291 27 -470 115 -749 64 -202 191 -466 285 -591 15 -20 16 -19 37 10
69 94 183 313 240 465 102 266 148 503 154 795 10 420 -76 798 -266 1160 -66
126 -139 245 -151 245 -4 0 -31 -39 -60 -87z m119 -211 c155 -308 221 -533
256 -865 19 -177 19 -290 0 -476 -24 -220 -31 -230 -38 -52 -12 272 -60 519
-143 746 -39 104 -125 295 -134 295 -13 0 -106 -217 -149 -345 -79 -237 -106
-380 -125 -670 l-12 -180 -14 90 c-22 135 -20 609 3 730 32 170 56 262 102
396 67 189 175 429 195 429 5 0 32 -44 59 -98z m-26 -1379 c14 -32 38 -103 53
-158 25 -91 28 -116 28 -275 1 -141 -3 -190 -18 -250 -23 -90 -79 -233 -93
-237 -10 -4 -58 107 -82 187 -41 135 -52 350 -26 487 21 112 88 303 106 303 3
0 18 -26 32 -57z"/>
<path d="M3340 3843 c-369 -39 -718 -217 -964 -492 -70 -78 -166 -220 -215
-316 -98 -196 -148 -389 -158 -606 -28 -595 311 -1152 855 -1406 117 -55 182
-76 332 -110 159 -35 403 -37 562 -5 300 62 547 188 753 385 l65 63 -2 499 -3
500 -537 3 -538 2 0 -220 0 -221 47 32 c220 152 511 73 627 -171 28 -59 31
-74 31 -165 0 -83 -4 -111 -25 -164 -43 -111 -185 -244 -333 -311 -469 -212
-1003 28 -1158 520 -21 66 -24 94 -24 240 0 146 3 174 24 240 105 334 382 558
739 596 l62 7 0 553 0 554 -52 -2 c-29 0 -69 -3 -88 -5z"/>
<path d="M4734 3841 c-2 -2 -4 -294 -4 -648 l0 -643 120 0 120 0 2 568 3 567
113 3 112 3 0 74 0 74 -231 3 c-127 2 -233 1 -235 -1z"/>
<path d="M5345 3835 c-7 -22 -128 -1275 -124 -1279 6 -6 46 -8 145 -7 l91 1 7
133 c4 72 9 149 12 170 l6 37 59 0 c32 0 59 -1 60 -2 1 -2 6 -77 12 -168 l12
-165 118 -3 117 -3 0 33 c0 29 -31 347 -45 463 -3 22 -21 209 -41 415 -20 206
-38 376 -39 378 -7 9 -388 6 -390 -3z m209 -217 c10 -114 36 -509 36 -550 l0
-38 -50 0 c-60 0 -57 -37 -30 345 11 154 20 288 20 298 0 9 4 17 9 17 5 0 12
-33 15 -72z"/>
<path d="M6218 3840 c-154 -6 -175 -14 -212 -86 -18 -34 -21 -57 -21 -179 l0
-140 120 0 120 0 3 117 c3 130 12 150 57 130 l25 -12 0 -173 c0 -212 1 -210
-121 -216 l-79 -3 0 -63 0 -63 73 -4 c48 -2 83 -9 100 -21 l27 -17 0 -189 c0
-203 -3 -216 -52 -209 -22 3 -23 6 -28 143 l-5 140 -120 0 -120 0 0 -160 c0
-179 10 -216 69 -258 29 -20 43 -22 206 -25 203 -3 227 4 270 79 25 43 25 48
25 259 0 188 -2 219 -18 248 -22 41 -72 72 -114 72 -46 0 -41 16 6 24 52 8 96
46 116 100 14 37 16 73 13 213 -6 282 -32 304 -340 293z"/>
<path d="M6734 3841 c-2 -2 -4 -294 -4 -648 l0 -643 123 0 122 0 -3 477 c-2
263 0 520 3 571 l7 92 39 0 39 0 0 -570 0 -571 123 3 122 3 0 643 0 643 -283
2 c-156 1 -286 0 -288 -2z"/>
<path d="M7484 3841 c-2 -2 -4 -294 -4 -648 l0 -643 120 0 120 0 2 218 3 217
105 5 c129 6 164 22 200 95 25 50 25 52 25 320 0 280 -6 335 -44 381 -39 48
-64 53 -300 56 -123 2 -225 1 -227 -1z m308 -168 c16 -15 18 -36 18 -263 0
-182 -3 -250 -12 -262 -16 -20 -65 -29 -71 -14 -7 18 -9 535 -2 546 10 15 46
12 67 -7z"/>
<path d="M8973 3833 c-3 -6 -3 -297 -1 -645 l3 -633 123 -3 122 -3 0 406 c0
263 3 405 10 405 6 0 10 -3 10 -7 0 -5 28 -187 62 -405 l63 -398 97 0 c54 0
98 2 98 4 0 2 5 28 10 57 6 30 26 155 45 279 19 124 42 266 50 315 8 50 18
105 21 123 3 17 9 32 14 32 6 0 10 -154 10 -405 l0 -405 120 0 120 0 -2 646
-3 646 -155 0 c-140 0 -155 -2 -162 -19 -4 -10 -23 -112 -43 -228 -20 -115
-45 -255 -55 -310 -10 -55 -29 -155 -41 -223 -12 -68 -25 -119 -29 -115 -4 4
-12 37 -18 73 -22 136 -144 815 -146 818 -2 1 -74 3 -161 5 -114 1 -159 -1
-162 -10z"/>
<path d="M8310 3818 c-19 -13 -45 -43 -58 -68 l-23 -45 3 -526 3 -526 28 -36
c49 -65 66 -69 269 -65 l180 3 38 42 c21 24 40 57 44 74 3 17 6 257 6 533 0
466 -2 504 -19 541 -10 22 -31 51 -45 65 -27 24 -31 25 -209 28 -176 3 -183 2
-217 -20z m234 -144 c14 -14 16 -70 16 -470 0 -295 -4 -462 -10 -475 -6 -11
-21 -19 -35 -19 -14 0 -29 8 -35 19 -6 13 -10 180 -10 475 0 400 2 456 16 470
8 9 22 16 29 16 7 0 21 -7 29 -16z"/>
<path d="M4730 1975 l0 -385 2610 0 2610 0 0 385 0 385 -2610 0 -2610 0 0
-385z m3068 261 c52 -27 75 -62 80 -121 l4 -55 -66 0 -66 0 0 34 c0 39 -19 59
-52 54 -23 -3 -23 -5 -26 -162 -3 -159 2 -186 34 -186 25 0 44 31 44 74 l0 43
50 6 c73 9 80 4 80 -56 0 -112 -57 -167 -173 -167 -76 0 -124 22 -152 70 -18
32 -20 52 -20 212 0 198 5 214 76 250 42 22 149 24 187 4z m1948 -2 c45 -22
74 -70 74 -125 0 -46 -30 -109 -52 -109 -7 0 2 -12 19 -26 39 -30 58 -89 48
-150 -12 -81 -70 -124 -167 -124 -96 0 -160 52 -162 132 -1 42 0 43 33 46 55
6 77 -4 87 -40 21 -73 95 -20 76 54 -6 25 -16 35 -40 42 -30 8 -32 11 -32 57
0 46 2 49 25 49 33 0 53 39 39 78 -14 41 -56 38 -69 -5 -9 -32 -10 -33 -67
-33 -55 0 -58 1 -58 25 0 40 37 104 73 125 40 25 125 26 173 4z m-4576 -43 l0
-50 -47 -3 -48 -3 -3 -212 -2 -213 -60 0 -60 0 0 215 0 215 -50 0 -50 0 0 50
0 50 160 0 160 0 0 -49z m632 11 c32 -32 33 -34 33 -122 0 -88 -1 -90 -32
-122 -30 -29 -40 -33 -103 -36 l-70 -4 0 -104 0 -104 -65 0 -65 0 0 266 0 266
135 -4 135 -3 32 -33z m603 16 c66 -278 110 -501 100 -504 -7 -3 -36 -4 -66
-2 l-53 3 -11 50 -10 50 -45 0 c-32 0 -45 -4 -47 -15 -1 -8 -4 -32 -8 -52 l-6
-38 -64 0 c-36 0 -65 4 -65 9 0 8 26 130 87 404 l26 117 78 0 c73 0 79 -2 84
-22z m565 -78 l0 -100 40 0 40 0 0 100 0 100 65 0 65 0 0 -265 0 -265 -65 0
-65 0 0 110 0 110 -40 0 -40 0 0 -110 0 -110 -65 0 -65 0 0 265 0 265 65 0 65
0 0 -100z m1560 50 l0 -50 -80 0 -80 0 -2 -212 -3 -213 -67 -3 -68 -3 0 266 0
265 150 0 150 0 0 -50z m602 -210 c31 -140 57 -259 57 -263 1 -4 -29 -7 -66
-5 -67 3 -68 3 -71 33 -6 70 -10 75 -52 75 -44 0 -52 -9 -60 -65 l-5 -40 -68
-3 c-66 -3 -67 -2 -62 20 5 24 38 175 81 377 13 62 24 118 24 123 0 5 37 8 82
6 l82 -3 58 -255z"/>
<path d="M5630 2080 c0 -56 1 -60 23 -60 49 0 76 70 41 104 -8 9 -26 16 -40
16 -23 0 -24 -3 -24 -60z"/>
<path d="M6306 2032 c-4 -37 -9 -77 -13 -89 -5 -20 -1 -23 27 -23 28 0 32 3
27 23 -3 12 -9 50 -13 85 -4 34 -10 64 -14 67 -4 2 -10 -26 -14 -63z"/>
<path d="M8988 2085 c-4 -11 -9 -45 -13 -75 -4 -30 -9 -63 -11 -72 -4 -14 1
-18 25 -18 35 0 34 -5 17 105 -8 50 -14 73 -18 60z"/>
<path d="M5993 1401 c-52 -24 -73 -56 -90 -135 -16 -76 -16 -160 -2 -245 10
-57 17 -72 54 -108 40 -41 45 -43 102 -43 77 0 119 26 153 95 22 45 24 62 24
175 1 114 -2 130 -26 182 -29 63 -60 85 -130 93 -30 4 -55 0 -85 -14z m121
-42 c41 -19 60 -72 64 -185 5 -119 -10 -203 -41 -232 -56 -51 -143 -31 -171
39 -19 47 -22 242 -5 303 21 75 84 106 153 75z"/>
<path d="M8541 1402 c-19 -9 -43 -28 -53 -42 -62 -87 -63 -349 -2 -434 26 -35
74 -56 128 -56 78 0 136 72 136 169 0 28 -3 32 -22 29 -17 -2 -24 -14 -33 -55
-19 -84 -58 -113 -122 -92 -56 18 -73 68 -73 214 0 132 9 177 42 212 52 55
158 11 158 -66 0 -17 18 -31 41 -31 5 0 9 15 9 34 0 66 -74 136 -145 136 -16
0 -45 -8 -64 -18z"/>
<path d="M4725 1393 c2 -10 4 -21 4 -25 1 -5 30 -8 66 -8 l65 0 0 -240 0 -240
30 0 30 0 0 240 0 240 65 0 c63 0 65 1 65 25 l0 25 -164 0 c-151 0 -164 -1
-161 -17z"/>
<path d="M7120 1145 l0 -265 25 0 25 0 0 253 c0 138 4 245 9 237 4 -8 34 -122
67 -252 l58 -238 33 0 c28 0 33 4 41 33 5 17 33 127 62 242 29 116 57 214 62
220 4 5 8 -104 8 -243 l0 -252 25 0 25 0 -2 263 -3 262 -47 3 c-55 4 -40 36
-112 -253 -24 -99 -48 -193 -52 -210 -7 -29 -8 -29 -12 -5 -7 45 -102 424
-112 448 -8 18 -17 22 -55 22 l-45 0 0 -265z"/>
<path d="M9637 1404 c-4 -4 -7 -124 -7 -266 l0 -258 30 0 30 0 0 98 c1 93 2
99 30 132 36 41 31 47 115 -115 54 -104 63 -115 88 -115 33 0 33 4 1 60 -69
119 -134 239 -134 248 0 5 36 56 79 113 68 89 77 104 60 107 -11 2 -26 1 -34
-2 -7 -2 -55 -64 -106 -136 l-94 -131 -5 133 c-5 124 -6 133 -25 136 -12 2
-24 0 -28 -4z"/>
</g>
</svg>
