<?xml version="1.0" standalone="no"?>
<!DOCTYPE svg PUBLIC "-//W3C//DTD SVG 20010904//EN"
 "http://www.w3.org/TR/2001/REC-SVG-20010904/DTD/svg10.dtd">
<svg version="1.0" xmlns="http://www.w3.org/2000/svg"
 width="329.000000pt" height="291.000000pt" viewBox="0 0 329.000000 291.000000"
 preserveAspectRatio="xMidYMid meet">

<g transform="translate(0.000000,291.000000) scale(0.100000,-0.100000)"
fill="#000000" stroke="none">
<path d="M1160 2314 c-144 -45 -173 -197 -68 -346 10 -14 8 -24 -10 -55 -54
-90 -82 -179 -81 -263 l0 -55 20 38 c23 44 39 40 40 -11 0 -46 16 -124 19 -97
1 11 2 29 1 40 l-1 20 9 -20 c5 -11 7 -33 5 -50 l-4 -30 9 28 c6 16 6 40 1 58
-11 36 -4 105 15 164 7 22 16 49 20 60 5 14 -1 12 -19 -10 l-26 -30 0 31 c0
54 99 186 133 176 4 -1 7 3 7 8 0 15 80 100 115 121 25 16 27 19 10 19 -12 0
-38 -9 -60 -20 -46 -24 -56 -19 -27 13 12 13 22 28 22 34 0 17 -68 73 -89 73
-47 0 -68 -88 -35 -151 11 -23 12 -34 4 -44 -17 -21 -37 -8 -60 39 -25 54 -26
112 0 154 45 74 171 69 217 -8 9 -16 22 -30 28 -31 34 -4 71 5 81 19 15 21
140 20 182 -2 26 -13 31 -13 60 4 19 12 56 21 92 23 66 5 83 13 60 27 -13 8
-12 10 2 10 9 0 18 -5 20 -11 2 -5 11 -7 22 -3 15 6 13 9 -14 20 -43 18 -127
18 -181 -1 -39 -14 -47 -14 -81 0 -44 17 -123 19 -186 5 -41 -10 -46 -8 -90
23 -56 41 -101 49 -162 31z m577 -90 c-3 -3 -12 -4 -19 -1 -8 3 -5 6 6 6 11 1
17 -2 13 -5z"/>
<path d="M1968 2294 c-32 -17 -34 -20 -12 -28 8 -3 12 -2 9 4 -3 5 7 16 22 24
15 8 24 15 18 15 -5 0 -22 -7 -37 -15z"/>
<path d="M1988 2253 c7 -3 16 -2 19 1 4 3 -2 6 -13 5 -11 0 -14 -3 -6 -6z"/>
<path d="M1923 2185 c0 -8 4 -12 9 -9 5 3 6 10 3 15 -9 13 -12 11 -12 -6z"/>
<path d="M1531 1997 c13 -13 26 -22 28 -20 3 2 15 -4 28 -12 39 -26 25 -7 -19
25 -49 35 -71 40 -37 7z"/>
<path d="M1730 2000 c-8 -5 -10 -10 -5 -10 6 0 17 5 25 10 8 5 11 10 5 10 -5
0 -17 -5 -25 -10z"/>
<path d="M1701 1964 c0 -11 3 -14 6 -6 3 7 2 16 -1 19 -3 4 -6 -2 -5 -13z"/>
<path d="M1359 1933 c-1 -5 -1 -11 0 -15 0 -4 -6 -5 -14 -2 -8 4 -15 1 -15 -5
0 -6 5 -11 10 -11 6 0 13 -8 17 -17 12 -35 45 -73 61 -72 12 0 11 3 -5 9 -13
5 -23 15 -23 21 0 8 5 7 18 -2 14 -11 15 -11 5 1 -14 15 -18 70 -5 70 14 -1
42 -27 35 -34 -4 -4 0 -4 10 -1 15 6 14 9 -6 26 l-22 19 25 -8 c14 -5 32 -23
40 -40 10 -21 19 -29 28 -23 20 12 -37 67 -84 80 -46 13 -74 14 -75 4z m28
-75 c-3 -8 -6 -5 -6 6 -1 11 2 17 5 13 3 -3 4 -12 1 -19z"/>
<path d="M1603 1921 c-10 -16 -9 -18 7 -14 11 3 16 11 13 19 -7 18 -6 18 -20
-5z"/>
<path d="M2186 1887 c3 -10 9 -15 12 -12 3 3 0 11 -7 18 -10 9 -11 8 -5 -6z"/>
<path d="M1540 1880 c0 -5 7 -7 15 -4 8 4 15 8 15 10 0 2 -7 4 -15 4 -8 0 -15
-4 -15 -10z"/>
<path d="M1515 1830 c-3 -5 -1 -10 4 -10 6 0 11 5 11 10 0 6 -2 10 -4 10 -3 0
-8 -4 -11 -10z"/>
<path d="M1447 1823 c-4 -6 3 -19 15 -29 12 -11 18 -13 13 -5 -6 10 -4 13 7 9
9 -4 15 0 15 8 0 17 -13 18 -23 2 -5 -8 -9 -6 -14 7 -4 11 -9 14 -13 8z"/>
<path d="M2212 1823 c-10 -4 -10 -8 0 -21 11 -13 10 -15 -3 -10 -13 5 -16 2
-12 -13 4 -15 2 -18 -11 -13 -20 8 -20 0 0 -31 19 -29 29 -31 38 -9 3 8 2 12
-4 9 -6 -3 -10 5 -10 19 0 36 13 33 28 -6 12 -33 5 -47 -25 -48 -7 0 -10 -7
-7 -17 4 -13 3 -14 -3 -5 -8 10 -12 10 -23 -3 -9 -11 -10 -19 -4 -23 7 -5 7
-19 1 -42 -7 -29 -10 -32 -18 -17 -6 10 -12 25 -14 35 -2 9 -8 28 -14 42 -10
23 -11 23 -5 -7 4 -26 3 -32 -9 -27 -11 4 -14 -6 -13 -48 2 -60 -21 -141 -37
-135 -6 2 -15 19 -20 38 -4 19 -11 44 -14 57 -4 16 -1 22 11 22 23 0 21 42 -3
57 -10 7 -22 9 -25 6 -11 -11 -6 -43 7 -43 8 0 8 -3 2 -8 -6 -4 -12 -34 -13
-66 -2 -63 -29 -122 -71 -160 -26 -24 -28 -5 -5 39 19 35 25 61 29 130 3 48 3
49 -4 10 -6 -31 -9 -34 -11 -15 -1 14 -2 32 -1 40 2 13 1 13 -8 0 -6 -8 -8
-23 -6 -32 15 -53 14 -62 -1 -33 l-15 30 5 -33 c4 -20 2 -31 -4 -27 -6 4 -23
-3 -39 -14 -16 -12 -31 -21 -34 -21 -3 0 -21 -16 -41 -36 -21 -21 -40 -33 -47
-28 -8 4 -9 3 -5 -4 12 -20 16 -53 5 -47 -5 4 -7 10 -4 15 6 9 -33 40 -49 40
-6 0 1 -8 14 -17 l25 -18 -30 -6 c-30 -7 -30 -7 -3 -8 35 -1 44 -18 23 -41
-13 -14 -13 -19 -3 -23 7 -3 4 -5 -7 -5 -11 1 -31 0 -45 -1 -20 -1 -22 -3 -10
-11 11 -7 6 -8 -18 -4 -27 6 -31 4 -26 -10 4 -11 -2 -19 -22 -27 -41 -15 -64
-38 -57 -57 5 -12 1 -14 -15 -10 -12 4 -25 2 -28 -3 -5 -9 44 -73 109 -144
l27 -30 43 49 c23 28 57 66 75 85 l33 36 -4 -32 c-2 -18 -1 -33 3 -33 9 0 52
48 100 113 24 32 45 56 47 53 2 -2 4 -23 5 -46 l0 -42 24 28 c13 16 39 60 57
97 27 58 33 65 39 45 3 -13 6 -38 7 -57 1 -33 2 -33 20 -17 55 50 118 229 124
358 2 38 6 71 10 74 3 3 13 -8 21 -24 25 -49 32 -44 25 16 -15 124 -32 173
-57 165z m-177 -202 c3 -5 1 -12 -5 -16 -5 -3 -10 1 -10 9 0 18 6 21 15 7z
m-221 -256 c-29 -22 -36 -17 -11 8 12 12 24 18 26 14 1 -5 -5 -15 -15 -22z
m-214 -237 c0 -6 -6 -5 -15 2 -8 7 -15 14 -15 16 0 2 7 1 15 -2 8 -4 15 -11
15 -16z m-65 -27 c-6 -5 -25 10 -25 20 0 5 6 4 14 -3 8 -7 12 -15 11 -17z"/>
<path d="M2126 1787 c3 -10 9 -15 12 -12 3 3 0 11 -7 18 -10 9 -11 8 -5 -6z"/>
<path d="M1305 1753 c-4 -10 -9 -31 -11 -48 -1 -16 0 -24 3 -17 2 6 12 12 20
12 12 0 13 3 3 15 -6 8 -9 23 -5 35 8 25 0 27 -10 3z"/>
<path d="M1330 1762 c0 -6 -3 -17 -6 -25 -7 -19 21 -30 35 -13 8 10 6 18 -9
31 -11 10 -20 13 -20 7z"/>
<path d="M2153 1730 c6 -16 17 -30 25 -30 9 0 7 9 -8 30 -12 17 -23 30 -25 30
-2 0 2 -13 8 -30z"/>
<path d="M2066 1712 c-7 -11 31 -58 41 -49 4 5 1 12 -6 17 -8 4 -11 15 -8 24
6 16 -17 24 -27 8z"/>
<path d="M1152 1670 c-7 -12 -10 -26 -6 -32 4 -7 3 -8 -4 -4 -8 4 -12 0 -12
-12 0 -10 -3 -22 -7 -26 -5 -4 -8 -29 -9 -54 l-1 -47 14 33 c7 18 11 37 8 43
-4 5 -3 15 2 22 5 8 10 2 14 -18 5 -23 6 -18 7 22 0 28 3 61 7 72 8 27 3 27
-13 1z"/>
<path d="M1140 1520 c0 -5 5 -10 11 -10 5 0 7 5 4 10 -3 6 -8 10 -11 10 -2 0
-4 -4 -4 -10z"/>
<path d="M1880 1480 c0 -5 5 -10 10 -10 6 0 10 5 10 10 0 6 -4 10 -10 10 -5 0
-10 -4 -10 -10z"/>
<path d="M1664 1309 c-3 -5 6 -9 20 -9 31 0 34 6 6 13 -11 3 -23 1 -26 -4z"/>
<path d="M1578 1248 c5 -5 16 -8 23 -6 8 3 3 7 -10 11 -17 4 -21 3 -13 -5z"/>
<path d="M1425 1130 c10 -11 20 -20 23 -20 3 0 -3 9 -13 20 -10 11 -20 20 -23
20 -3 0 3 -9 13 -20z"/>
<path d="M1470 1111 c-6 -12 -7 -21 -1 -21 10 0 24 30 17 37 -2 3 -9 -5 -16
-16z"/>
<path d="M600 854 c-69 -30 -105 -92 -95 -165 11 -81 65 -129 145 -129 55 0
80 15 80 46 0 30 -23 28 -29 -2 -4 -24 -19 -34 -52 -34 -64 0 -117 90 -104
176 9 65 49 104 104 104 35 0 43 -4 51 -25 12 -32 30 -32 30 -1 0 30 -3 32
-55 40 -26 4 -52 0 -75 -10z"/>
<path d="M2130 861 c0 -17 38 -51 58 -51 21 0 62 27 62 41 0 5 -5 9 -11 9 -5
0 -8 -4 -4 -9 3 -6 -2 -14 -10 -19 -22 -12 -75 -3 -75 14 0 7 -4 16 -10 19 -5
3 -10 1 -10 -4z"/>
<path d="M1609 853 c0 -5 -2 -18 -5 -31 -2 -14 0 -21 6 -17 5 3 10 12 10 20 0
19 32 25 90 16 3 -1 4 -59 2 -131 -3 -105 -6 -130 -18 -130 -8 0 -14 -4 -14
-9 0 -5 23 -9 51 -9 27 0 47 3 44 7 -4 3 -11 6 -16 6 -6 0 -10 53 -10 135 l0
135 33 -2 c18 -1 36 -2 39 -2 4 -1 10 -11 14 -23 l8 -23 4 24 c3 13 -1 27 -9
32 -16 11 -228 12 -229 2z"/>
<path d="M770 771 c0 -5 7 -11 15 -15 12 -4 15 -24 15 -86 0 -62 -3 -82 -15
-86 -28 -11 -15 -24 25 -24 22 0 40 5 40 10 0 6 -4 10 -10 10 -22 0 -7 27 41
78 28 28 52 52 55 52 2 0 4 -28 4 -61 0 -47 -4 -65 -17 -75 -16 -12 -13 -13
25 -14 23 0 42 5 42 10 0 6 -4 10 -10 10 -6 0 -10 35 -10 86 0 71 3 89 18 100
15 12 11 13 -30 14 -27 0 -48 -4 -48 -10 0 -5 7 -10 15 -10 27 0 15 -24 -40
-83 l-55 -58 0 67 c0 52 4 70 18 80 15 12 11 13 -30 14 -27 0 -48 -4 -48 -9z"/>
<path d="M1063 766 c13 -10 17 -28 17 -77 0 -72 -5 -83 -38 -94 -24 -7 -25
-30 -2 -30 28 0 52 52 58 124 l5 71 36 0 36 0 -3 -87 c-1 -49 -7 -89 -12 -91
-25 -9 -6 -22 30 -22 37 0 55 13 29 22 -14 5 -13 172 1 176 5 2 10 8 10 13 0
5 -42 9 -92 9 -80 -1 -90 -3 -75 -14z"/>
<path d="M1296 767 c-11 -8 -16 -21 -13 -33 5 -18 5 -17 12 4 4 12 12 22 19
23 6 0 21 2 32 5 27 4 41 -11 47 -53 4 -27 1 -33 -21 -43 -21 -8 -22 -9 -5 -6
29 5 36 -7 28 -43 -11 -52 -86 -65 -99 -18 -4 16 1 28 20 45 29 25 15 30 -21
6 -31 -20 -34 -68 -6 -84 26 -14 57 -13 81 3 17 10 22 9 29 -1 5 -9 15 -10 31
-4 18 7 20 10 8 15 -12 4 -15 19 -14 61 0 32 -3 56 -9 56 -6 0 -5 4 1 8 16 10
0 48 -25 61 -27 15 -73 14 -95 -2z"/>
<path d="M1881 771 c-8 -5 -16 -19 -18 -31 -2 -12 1 -19 7 -15 5 3 10 12 10
20 0 22 51 33 78 16 15 -9 34 -81 22 -81 -4 0 -6 -18 -3 -39 5 -36 3 -41 -26
-56 -38 -19 -67 -13 -75 17 -7 28 19 58 51 58 12 0 23 4 23 8 0 17 -60 -1 -86
-25 -22 -20 -24 -27 -13 -34 8 -5 10 -9 5 -9 -5 0 -1 -9 9 -20 21 -23 43 -25
80 -8 20 9 28 9 34 0 4 -6 17 -9 29 -5 19 5 20 7 7 17 -11 8 -15 32 -16 89 -1
67 -4 80 -22 92 -24 17 -74 20 -96 6z"/>
<path d="M2070 769 c0 -5 7 -9 15 -9 14 0 22 -55 15 -114 -1 -12 2 -16 12 -11
10 6 11 5 1 -6 -7 -7 -13 -21 -13 -31 0 -9 -7 -21 -16 -26 -11 -6 -2 -9 29 -8
l46 1 -21 22 c-12 13 -18 26 -15 30 4 3 7 0 7 -7 0 -9 6 -8 20 5 11 10 20 23
20 29 0 6 -7 3 -14 -6 -19 -26 -26 -12 -26 50 0 35 5 61 15 72 14 15 12 17
-30 18 -25 0 -45 -4 -45 -9z"/>
<path d="M2220 774 c0 -4 7 -12 16 -19 15 -11 13 -16 -22 -56 l-38 -44 36 33
c20 19 38 30 40 25 3 -4 3 -36 0 -70 -3 -45 -8 -63 -18 -63 -8 0 -14 -3 -14
-8 0 -4 18 -6 40 -4 34 4 37 6 25 18 -10 10 -12 28 -8 63 3 31 1 51 -6 55 -6
4 -11 12 -11 17 0 6 5 7 10 4 6 -3 10 2 10 13 0 10 10 24 23 30 19 9 15 11
-30 11 -29 1 -53 -2 -53 -5z"/>
<path d="M2360 768 c0 -5 8 -8 18 -8 15 0 17 -9 12 -92 -4 -67 -8 -92 -17 -91
-7 2 -13 0 -13 -5 0 -4 17 -7 39 -7 29 0 35 2 24 10 -11 8 -13 31 -11 100 3
87 4 90 26 88 12 -2 22 2 22 7 0 5 -22 9 -50 7 -27 -1 -50 -5 -50 -9z"/>
<path d="M2470 769 c0 -5 5 -7 11 -4 6 4 13 -2 16 -14 3 -12 9 -21 14 -21 5 0
5 8 2 18 -10 27 -43 44 -43 21z"/>
<path d="M2565 768 c17 -7 19 -17 17 -53 -3 -28 0 -45 7 -45 6 0 11 19 11 45
0 30 5 47 16 53 12 7 4 9 -27 9 -34 0 -40 -2 -24 -9z"/>
<path d="M2700 770 c8 -5 20 -10 25 -10 6 0 3 5 -5 10 -8 5 -19 10 -25 10 -5
0 -3 -5 5 -10z"/>
<path d="M2750 770 c-8 -5 -12 -12 -9 -15 4 -3 12 1 19 10 14 17 11 19 -10 5z"/>
<path d="M2671 685 c-22 -24 -41 -48 -41 -51 0 -4 1 -5 3 -3 2 2 23 25 47 52
23 26 40 47 38 47 -3 0 -24 -20 -47 -45z"/>
<path d="M2589 644 c-1 -10 -2 -26 -3 -34 -1 -8 -5 -21 -9 -27 -6 -9 -2 -13
11 -13 16 0 19 6 17 40 -3 43 -14 67 -16 34z"/>
<path d="M2719 579 c-10 -6 -7 -9 14 -9 29 0 35 5 14 13 -8 3 -20 1 -28 -4z"/>
</g>
</svg>
